<svg width="233" height="254" viewBox="0 0 233 254" fill="none" xmlns="http://www.w3.org/2000/svg">
<rect width="232.991" height="253.251" fill="#314939"/>
<g clip-path="url(#clip0_17_1382)">
<path d="M133.849 130.736C133.849 131.036 133.809 131.406 133.849 131.676C133.909 132.066 134.169 132.126 134.478 132.306C134.478 132.306 137.217 133.905 138.237 137.004C139.596 141.143 138.556 145.103 135.258 147.962C134.398 148.702 132.439 149.721 131.34 150.001C130.9 150.111 129.741 150.291 129.301 150.311C121.365 150.721 115.877 141.863 120.405 135.075C121.315 133.705 123.314 132.096 123.324 131.886C123.324 131.886 123.474 128.407 123.504 128.387C125.173 127.557 125.463 130.546 125.952 130.716C127.782 130.476 129.411 130.216 131.23 130.746C131.42 130.126 132.219 127.697 132.809 127.597C134.089 127.387 133.799 129.936 133.819 130.736H133.849Z" fill="#BF833C"/>
<path d="M132.979 127.577C134.089 127.577 133.819 129.956 133.849 130.726C133.849 131.026 133.809 131.396 133.849 131.666C133.909 132.056 134.169 132.116 134.479 132.296C134.479 132.296 137.217 133.895 138.237 136.994C139.596 141.133 138.557 145.093 135.258 147.952C134.399 148.692 132.43 149.711 131.34 149.991C130.9 150.101 129.741 150.281 129.301 150.301C129.121 150.301 128.941 150.311 128.761 150.311C121.115 150.311 115.977 141.693 120.405 135.065C121.315 133.695 123.324 132.086 123.324 131.876C123.324 131.876 123.474 128.397 123.504 128.377C123.704 128.277 123.894 128.227 124.053 128.227C125.243 128.227 125.523 130.556 125.953 130.696C126.992 130.556 127.972 130.416 128.951 130.416C129.701 130.416 130.45 130.496 131.23 130.726C131.42 130.106 132.22 127.677 132.809 127.577C132.859 127.577 132.909 127.567 132.959 127.567M132.979 124.447C132.759 124.447 132.539 124.467 132.32 124.507C131.01 124.727 130.041 125.577 129.201 127.307C129.121 127.307 129.041 127.307 128.971 127.307C128.551 127.307 128.142 127.327 127.742 127.357C127.092 126.287 125.983 125.117 124.063 125.117C123.404 125.117 122.754 125.277 122.114 125.587C120.445 126.397 120.385 127.677 120.275 129.996C120.275 130.196 120.255 130.396 120.245 130.586C119.476 131.326 118.496 132.296 117.796 133.335C115.138 137.314 114.908 142.213 117.177 146.452C119.486 150.771 123.924 153.461 128.761 153.461C128.991 153.461 129.221 153.461 129.461 153.441C130.101 153.411 131.45 153.201 132.1 153.041C133.659 152.651 136.098 151.381 137.297 150.331C141.555 146.632 142.975 141.423 141.195 136.025C140.236 133.105 138.237 131.206 136.977 130.246C137.007 128.996 137.017 126.967 135.668 125.587C134.958 124.857 133.999 124.457 132.969 124.457L132.979 124.447Z" fill="#15291B"/>
<path d="M115.058 109.811C115.158 109.861 115.158 109.911 115.058 109.971V109.811Z" fill="#15291B"/>
<path d="M110.86 139.744C111.989 139.404 112.969 140.694 112.749 141.793C112.699 142.023 112.149 143.013 111.989 143.233C110.7 144.953 107.351 147.902 105.572 149.182C104.763 149.761 102.034 151.641 101.164 151.431C100.215 151.201 99.5451 149.482 100.095 148.712C100.345 148.362 102.294 147.442 102.844 147.082C104.843 145.782 106.762 144.193 108.401 142.463C108.911 141.923 110.24 139.934 110.86 139.754V139.744Z" fill="#15291B"/>
<path d="M119.476 79.4782C121.035 79.0483 124.523 80.6179 124.074 82.3375C123.844 83.2073 122.674 82.9874 121.775 83.1573C120.335 83.4273 120.855 84.1571 119.926 84.667C116.447 86.5865 116.337 80.338 119.476 79.4682V79.4782Z" fill="#15291B"/>
<path d="M129.042 114.69C129.392 115.78 127.582 116.24 127.502 114.98C127.652 114.58 128.862 114.54 129.042 114.69Z" fill="#15291B"/>
<path d="M134.699 132.516L134.539 132.356C134.589 132.406 134.639 132.466 134.699 132.516Z" fill="#15291B"/>
<path d="M82.6131 186.263C84.2823 186.623 90.1895 187.812 91.0191 188.502C91.6488 189.032 93.1481 190.902 93.308 191.691C93.338 191.841 93.358 192.101 93.378 192.411C93.2181 194.321 90.8392 195.67 91.3789 197.54C102.014 197.12 112.659 196.89 123.304 196.89C123.244 196.06 123.424 193.751 119.885 192.661C119.875 192.661 119.845 192.661 119.835 192.651C119.745 192.601 119.666 192.551 119.576 192.501C118.746 192.111 116.917 191.971 117.247 190.752C117.577 190.212 125.603 189.672 126.722 190.682C127.552 191.441 127.622 192.621 127.452 193.781C126.772 194.481 126.392 195.441 126.292 195.89C126.292 195.92 126.162 196.45 126.202 196.91C137.197 196.95 148.202 197.21 159.187 197.7C159.107 196.12 157.398 193.091 155.329 192.401C155.289 192.391 155.229 192.381 155.169 192.361C153.28 191.611 150.541 191.322 149.062 191.272C148.622 191.252 146.993 191.352 146.913 190.992C148.012 189.512 149.062 188.012 150.071 186.473C154.499 179.664 155.079 172.256 151.48 164.818C150.861 163.538 148.642 160.159 148.482 159.039C148.322 157.88 149.731 156.99 150.001 155.57C151.281 148.852 147.962 138.404 147.083 131.476C146.923 130.186 146.633 128.157 147.302 127.037C148.202 125.547 150.531 123.538 151.75 122.098C157.088 115.81 160.306 110.431 163.145 102.653C163.775 100.933 165.884 95.2445 165.694 93.7648C165.554 92.6851 164.674 93.045 165.144 91.3454C166.153 87.6763 169.152 86.5665 168.642 81.7277C168.572 81.0878 168.053 78.7484 167.093 79.3582C166.683 79.9481 166.413 80.8079 165.974 81.3678C165.834 81.5377 165.814 81.6877 165.534 81.6277C165.304 79.6082 165.064 77.4687 163.715 75.8491C163.335 75.3992 162.605 74.6294 162.105 75.3092L161.616 80.528C161.046 80.568 161.166 79.8681 160.996 79.4982C160.576 78.5584 159.147 75.9391 157.937 76.129C157.747 76.159 157.428 76.4589 157.388 76.6089C157.348 76.7289 158.227 81.4478 157.628 83.3473C157.298 83.8472 155.848 82.6475 155.329 82.5075C154.909 82.3975 154.539 82.3675 154.109 82.3975C153.4 84.0671 156.298 87.0364 155.349 88.5661C155.109 88.956 154.379 89.1259 154.049 89.4558C153.38 90.1157 152.27 92.3052 151.58 93.2549C149.671 95.8843 145.383 101.263 142.365 102.353C142.155 102.433 141.975 102.473 141.745 102.443C141.445 102.143 142.904 99.8034 143.104 99.3435C144.074 97.124 144.294 94.9745 144.984 92.765C146.083 89.2359 147.372 88.2961 146.733 84.0671C146.403 81.8776 145.693 81.5277 145.004 79.8481C144.364 78.2885 144.824 77.2088 143.104 76.109C141.385 74.9993 137.377 73.7596 135.328 73.2397C125.613 70.8103 117.057 71.6701 109.051 77.9486C108.501 78.3785 108.011 79.1383 107.381 79.4082C106.342 79.8381 104.913 79.6882 103.783 80.0381C99.8949 81.2578 98.4956 85.5368 100.455 89.0159C100.834 89.6958 101.814 90.3256 101.914 90.5356C102.564 91.8653 100.505 98.0438 100.125 99.7034C98.5655 99.8534 96.1067 96.6941 93.9477 93.9648C92.9982 92.7551 91.6288 90.2457 90.7193 89.3659C90.1495 88.816 88.9401 88.726 89.0001 87.6663C89.09 86.2766 90.8992 83.8872 90.5393 82.8074C89.8896 81.7177 87.3509 83.8672 86.961 83.4873C86.8011 82.3375 86.7212 81.1278 86.8011 79.9581C86.8511 79.1883 87.7607 76.069 86.4213 76.149C85.4817 76.199 84.3023 77.8486 83.9325 78.6584C83.6426 79.3083 83.5826 80.328 83.0529 80.8379C82.6031 78.9883 82.5431 77.0988 82.4132 75.2192C80.9539 74.8293 79.7345 77.3387 79.5246 78.4785C79.4146 79.0683 79.3846 81.5277 79.2247 81.7777C79.1148 81.9476 79.0048 81.9776 78.8249 81.8577C78.3251 81.5277 77.6455 79.2083 77.1657 79.1183C75.6164 79.9481 75.8263 83.3473 76.2161 84.777C76.8958 87.2464 79.3447 89.8357 79.5745 91.9153C79.6745 92.825 79.2747 92.6151 79.0048 93.145C78.4751 94.1547 79.0648 96.1942 79.3746 97.274C79.5745 97.9638 79.8344 98.6037 80.0143 99.1635C83.1229 108.781 87.9206 117.999 95.417 125.057C95.6469 125.287 95.6969 125.527 95.7369 125.837C96.1867 129.696 94.3575 136.055 93.0781 139.784C91.5089 144.353 87.7307 149.961 88.2204 154.81C88.3004 155.57 89.0001 156.72 88.9601 157.14C88.9401 157.41 88.5703 158.099 88.4503 158.489C85.9815 167.007 86.2114 172.956 86.5712 176.975C85.7016 177.105 83.2928 175.455 82.5331 174.905C77.0757 170.926 74.0572 164.578 69.8991 159.519C69.3394 158.839 67.9501 157.19 67.2004 156.9C65.7711 156.35 64.2518 157.59 63.842 158.939C61.1333 167.977 68.9196 183.273 82.6131 186.253V186.263ZM147.962 180.154C146.853 183.133 143.594 188.002 143.304 188.342C141.675 190.302 135.838 192.041 133.379 191.691C132.389 191.551 132.08 190.732 131.76 189.872C131.4 188.902 131.04 188.562 131.96 187.952C134.868 186.043 137.957 182.934 137.667 181.154C137.287 178.815 132.849 182.234 131.83 182.814C129.101 184.373 124.613 185.813 121.475 185.773C119.845 185.753 121.065 183.093 121.355 182.034C122.304 178.545 122.124 175.815 120.535 171.986C120.145 171.036 118.626 168.277 117.577 168.067C114.518 167.437 118.076 171.966 117.527 178.345C117.197 182.154 114.268 189.332 110.84 191.082C108.691 192.181 102.784 192.111 101.904 192.171C101.874 192.161 101.194 192.091 100.645 191.691C100.705 188.752 99.8149 185.713 98.7854 182.284C96.9463 176.135 94.8773 169.197 97.666 160.239C110.18 162.408 118.186 162.698 119.606 162.748C127.622 163.038 135.798 162.618 143.634 160.719C143.734 160.819 143.354 163.078 143.284 163.418C142.944 165.078 141.515 169.217 141.635 170.626C141.785 172.356 143.074 172.986 144.414 170.966C144.734 170.486 146.453 166.827 146.693 166.827C149.561 170.736 149.631 175.715 147.982 180.174L147.962 180.154ZM142.015 83.5373C143.474 83.0974 143.204 85.7067 143.114 86.5165C143.004 87.4563 142.895 88.3861 141.695 88.0162C140.596 87.6763 140.466 83.9971 142.015 83.5373ZM141.085 91.4454C141.305 92.1952 140.616 94.3747 140.036 94.8645C139.516 95.3044 136.837 95.7543 136.268 95.4844C135.808 95.2645 134.798 92.7151 135.088 92.1152L138.886 90.1057C139.236 90.0557 140.965 91.0555 141.085 91.4454ZM107.431 83.9372C108.081 84.1171 108.941 84.717 109.51 84.547C110.24 84.3171 110.04 83.5772 110.21 83.0374C110.47 82.2176 112.299 80.9579 113.059 80.408C118.226 76.6889 122.634 75.8491 128.991 76.309C131.6 76.4989 134.578 77.1988 137.057 78.0286C136.018 78.9184 133.849 78.6484 133.759 80.448C133.629 82.9974 137.547 84.0371 137.807 84.8669C138.177 86.0567 136.787 87.9662 135.878 88.666C134.449 89.7658 131.08 90.5256 129.551 89.3759C128.961 88.936 128.971 87.7562 128.181 87.6063C126.682 87.3263 123.264 91.5153 125.013 92.3551C125.883 92.775 126.202 91.7053 127.052 92.5151C128.042 93.4649 129.151 95.9343 130.051 97.184C130.64 98.0038 131.88 99.6234 132.809 99.9033C134.299 100.353 136.018 100.283 137.537 100.103C137.127 102.093 134.718 102.973 132.919 103.073C131.9 103.133 129.891 102.443 129.171 103.233C128.171 104.342 129.711 106.042 131.98 106.202C132.779 106.252 135.188 106.202 135.188 106.202C135.188 106.202 134.728 106.672 133.929 106.902C131 107.751 128.931 108.271 128.311 111.081C129.321 112.31 130.121 114.53 130.171 115.38C130.261 117.149 126.782 117.209 126.482 115.9C126.352 115.34 126.402 113.63 127.362 111.141C126.602 109.931 125.943 108.661 124.513 108.191C118.696 106.272 109.73 105.232 106.102 99.6734C104.873 97.7938 105.852 94.7446 106.632 92.2752C107.002 91.0855 107.711 90.0657 108.121 88.906C108.071 88.3261 106.342 88.2461 105.802 88.0862C104.683 87.7562 103.983 87.5463 103.883 86.2466C103.693 83.8572 105.482 83.3773 107.461 83.9272L107.431 83.9372ZM130.79 117.569C130.82 117.149 131.43 117.049 131.41 115.52C131.39 114.47 130.64 112.67 131.44 111.791C132.01 111.171 133.639 111.161 134.538 110.901L131.29 118.839L130.93 119.649C131.07 119.169 130.76 117.959 130.79 117.559V117.569ZM129.761 122.668C129.581 123.538 129.371 124.397 129.231 124.897C129.041 125.277 128.701 125.277 128.361 125.147C127.862 124.947 127.922 123.588 127.902 123.208C127.812 121.818 127.782 119.429 127.752 118.119C128.231 118.209 128.851 118.209 129.211 118.119L129.781 121.808C129.821 122.088 129.821 122.378 129.761 122.668ZM125.773 122.028L115.288 109.971C117.017 110.321 118.656 110.571 120.375 110.911C122.004 111.231 124.223 111.091 124.633 113.06C125.163 115.61 125.923 118.229 125.773 122.018V122.028ZM115.058 109.971V109.811C115.158 109.861 115.158 109.911 115.058 109.971ZM92.6983 152.121C93.408 148.902 96.0167 144.753 97.1962 141.443C98.6355 137.434 99.4951 133.345 99.785 129.076C101.264 128.716 101.674 131.586 102.664 131.256C103.453 130.996 103.553 130.406 103.553 129.636C103.553 126.957 100.545 124.118 99.0753 122.498C94.1876 117.099 90.6393 113.32 87.3908 106.632C85.5217 102.793 84.0124 98.8036 82.7131 94.7246C83.9325 94.3647 86.0615 93.175 86.3213 92.985C86.5612 92.815 88.1305 92.2252 88.3504 92.3451C90.7992 95.7543 93.2481 99.5034 96.4066 102.303C99.625 105.152 103.083 105.752 106.112 109.031C106.802 109.771 114.608 118.489 119.725 124.068C120.825 125.267 122.234 126.507 123.254 127.737C123.444 127.967 123.624 128.097 123.564 128.447C125.233 127.617 125.523 130.606 126.013 130.776C127.842 130.536 129.471 130.276 131.3 130.806C131.49 130.186 132.29 127.757 132.879 127.657C134.159 127.447 133.869 129.996 133.889 130.796C134.339 130.886 134.219 130.546 134.209 130.246C134.199 129.826 134.009 128.277 133.889 127.937C133.779 127.637 133.259 127.877 133.459 126.837C135.768 121.158 138.377 115.6 140.776 109.971C141.105 109.191 141.295 107.871 141.865 107.232C142.375 106.662 143.874 105.742 144.684 105.432C148.862 103.822 151.261 99.8933 153.29 97.134L156.418 92.3451C156.718 92.1952 160.706 94.2347 161.586 94.7046L161.716 94.9845C159.946 100.003 158.157 105.322 155.559 109.971C152.94 114.66 149.042 118.769 145.453 122.728C143.474 123.648 143.774 118.269 141.615 119.669C140.656 120.288 141.405 123.788 141.595 124.877C143.164 133.825 145.743 143.153 146.083 152.321C146.203 155.55 145.813 155.59 142.924 156.36C139.676 157.23 136.647 157.73 133.299 157.939C133.319 157.39 133.239 154.62 133.249 152.781C133.249 151.801 133.179 150.811 133.279 149.831C133.939 149.152 134.828 148.832 135.288 148.002C134.429 148.742 132.459 149.761 131.37 150.041C131.04 151.811 131.21 153.651 131.22 155.45C131.22 156.09 131.22 157.11 131.2 158.169C130.68 158.299 129.781 158.389 129.031 158.409L129.341 150.351L126.052 150.271C126.452 150.401 126.882 150.421 127.282 150.521L126.952 158.389C122.304 159.119 103.563 158.029 94.4975 154.73C92.9882 154.18 92.2585 153.89 92.6583 152.101L92.6983 152.121ZM93.0182 160.419C93.1481 159.989 93.258 159.409 93.6279 159.149C93.8378 159.089 94.4775 159.369 95.0472 159.609C92.0986 169.267 94.3675 176.865 96.2166 183.043C97.0463 185.813 97.7859 188.302 97.9458 190.562C97.9358 190.522 97.9258 190.492 97.9158 190.452L96.8463 190.272C95.1571 181.894 88.5203 175.115 93.0182 160.429V160.419Z" fill="#15291B"/>
<path d="M131.42 133.525L129.121 133.795C123.264 134.995 121.125 140.894 123.644 146.012C123.644 146.152 123.434 146.102 123.354 146.052C123.104 145.882 122.014 144.273 121.854 143.903C119.316 138.214 125.313 130.436 131.42 133.525Z" fill="#15291B"/>
</g>
<defs>
<clipPath id="clip0_17_1382">
<rect width="105.4" height="125.7" fill="white" transform="translate(63.3022 72)"/>
</clipPath>
</defs>
</svg>
